<?xml version="1.0" encoding="utf-8"?>
<!-- Generator: Adobe Illustrator 26.0.3, SVG Export Plug-In . SVG Version: 6.00 Build 0)  -->
<svg version="1.0" id="Layer_1" xmlns="http://www.w3.org/2000/svg" xmlns:xlink="http://www.w3.org/1999/xlink" x="0px" y="0px"
	 viewBox="0 0 258 176.6" style="enable-background:new 0 0 258 176.6;" xml:space="preserve">
<style type="text/css">
	.st0{fill:#002337;}
	.st1{fill:#702567;}
</style>
<path class="st0" d="M195.1,129.6c2,0,3.2-1,4.3-3.7l5.4-13.4h-2.1l-4.2,10.8l-4.7-10.8h-2.1l5.9,12.9c-0.8,1.8-1.5,2.4-2.6,2.4
	c-0.7,0-1.4-0.1-2-0.5l-0.6,1.5C193.2,129.4,194.1,129.6,195.1,129.6 M187.8,125.7c0.8,0,1.6-0.2,2.3-0.6v-1.6
	c-0.6,0.3-1.2,0.5-1.9,0.4c-1,0.2-2-0.6-2.2-1.6c0-0.2,0-0.4,0-0.5v-7.6h4.1v-1.7H186v-3.9h-1.9v3.9h-1.8v1.7h1.8v7.8
	C184.1,124.7,185.7,125.7,187.8,125.7 M177.5,125.5h1.9v-13h-1.9V125.5z M177.4,109.7h2.2v-2.1h-2.2V109.7z M169.6,125.7
	c2.6,0,4.6-1.4,4.6-3.9v-0.1c0-2.3-2.1-3.1-4.2-3.7c-1.7-0.5-3.3-1-3.3-2.2v-0.1c0-1.1,1-1.9,2.5-1.9c1.4,0,2.7,0.5,3.8,1.2l0.9-1.4
	c-1.4-0.9-3-1.4-4.7-1.4c-2.6,0-4.4,1.5-4.4,3.7l0,0c0,2.4,2.2,3.1,4.3,3.7c1.7,0.5,3.2,1,3.2,2.3l0,0c0,1.3-1.1,2.1-2.7,2.1
	c-1.6-0.1-3.2-0.6-4.5-1.6l-1,1.4c1.5,1.2,3.4,1.9,5.4,1.9 M155.6,125.3h1.9v-5c0-3.9,2.3-5.9,5.1-5.9h0.1v-2.1
	c-2.4,0-4.5,1.4-5.3,3.6v-3.4h-1.9L155.6,125.3z M142.4,118.1c0.3-2.5,2-4.4,4.2-4.4c2.6,0,3.9,2,4.1,4.4H142.4z M142.4,119.6h10.3
	c0-0.2,0-0.5,0-0.7c0-3.8-2.2-6.9-6.1-6.9c-3.6,0-6.2,3-6.2,6.8c-0.2,3.6,2.6,6.6,6.1,6.8c0.1,0,0.2,0,0.3,0c2.1,0.1,4-0.8,5.4-2.4
	l-1.1-0.9c-1,1.2-2.5,1.8-4.1,1.8c-2.4,0-4.4-1.9-4.6-4.3 M132.2,125.6h1.7l5.6-13.1h-2.1l-4.4,10.8l-4.4-10.8h-2.1L132.2,125.6z
	 M121.9,125.5h1.9v-13h-1.9L121.9,125.5z M121.8,109.7h2.2v-2.1h-2.2V109.7z M106.8,125.5h1.9v-7.4c-0.1-2.1,1.5-3.9,3.6-4.1
	c0.1,0,0.2,0,0.3,0c2.3,0,3.6,1.5,3.6,3.9v7.6h1.9v-8c0-3.1-1.8-5.2-5-5.2c-1.8,0-3.5,0.9-4.4,2.5v-2.4h-1.9V125.5z M95.6,125.8
	c4.4,0,7.3-2.7,7.3-7.8v-10.1H101v10.2c0,3.8-2.1,5.8-5.3,5.8s-5.4-2.1-5.4-5.9v-10.1h-2v10.2C88.3,123.1,91.3,125.8,95.6,125.8"/>
<path class="st0" d="M205.4,100.4v-1.6h-0.1c-0.7,0-1.5-0.1-2.2-0.4c-0.6-0.3-0.9-1-0.9-2.1v-8c0-1,0.1-2,0.4-3
	c0.2-0.9,0.7-1.7,1.4-2.3c0.7-0.6,1.7-0.9,2.6-0.9c1.2-0.1,2.4,0.4,3.1,1.4c0.7,1.2,1,2.5,0.9,3.8v13.1h6.6v-1.6h-0.1
	c-0.7,0-1.5-0.2-2.1-0.5c-0.6-0.3-0.8-1.1-0.8-2.3v-8.3c0-1,0.1-1.9,0.4-2.8c0.2-0.8,0.7-1.5,1.3-2.1c0.7-0.6,1.6-0.8,2.5-0.8
	c1.2-0.1,2.4,0.4,3.1,1.4c0.7,1.2,1,2.5,0.9,3.8v13.1h6.6v-1.6h-0.1c-0.7,0-1.5-0.1-2.1-0.5c-0.6-0.3-0.8-1.1-0.8-2.3v-9
	c0-2.6-0.6-4.5-1.6-5.7c-1.2-1.2-2.8-1.9-4.5-1.8c-1.1,0-2.3,0.2-3.3,0.7c-1.2,0.6-2.1,1.6-2.7,2.8h-0.3c-0.4-1.1-1.2-2.1-2.2-2.7
	c-1-0.5-2.2-0.8-3.3-0.8c-1.1,0-2.2,0.2-3.2,0.7c-1.1,0.6-2,1.6-2.6,2.8h-0.2l-0.5-3.1h-6v1.6h0.1c0.7,0,1.4,0.1,2.1,0.5
	c0.6,0.3,0.8,1,0.8,2.1v11.9c0,1.2-0.3,1.9-0.8,2.3c-0.7,0.3-1.4,0.5-2.1,0.5h-0.5v1.6L205.4,100.4z M179.1,94.9
	c-0.1-1.3,0.4-2.5,1.2-3.4c0.8-0.8,2.3-1.2,4.5-1.3l2.4-0.1v3.1c0.1,1.4-0.4,2.8-1.4,3.9c-1,1-2.3,1.5-3.7,1.4
	C180.1,98.4,179.1,97.3,179.1,94.9 M183.9,100.3c0.7-0.3,1.3-0.7,1.8-1.3c0.5-0.6,1.1-1.2,1.6-1.9h0.3l0.6,3.3h5.1v-1.6h-0.1
	c-0.7,0.1-1.3-0.1-1.8-0.6c-0.4-0.6-0.6-1.4-0.5-2.2v-9.8c0-2.4-0.6-4.1-1.7-5.1c-1.5-1.1-3.4-1.6-5.2-1.5c-1.2,0-2.3,0.1-3.4,0.4
	c-0.9,0.2-1.8,0.6-2.5,1.2c-0.6,0.5-1,1.3-0.9,2.1c-0.1,0.7,0.2,1.4,0.8,1.8c0.7,0.4,1.6,0.6,2.4,0.6c0-0.7,0.1-1.4,0.2-2.1
	c0.1-0.6,0.5-1.1,1-1.5c0.7-0.4,1.4-0.6,2.2-0.5c0.8-0.1,1.6,0.2,2.3,0.6c0.5,0.4,0.9,1,1,1.7c0.2,0.8,0.2,1.6,0.2,2.4v2.3l-3.1,0.1
	c-2.9,0.1-5.1,0.6-6.5,1.6c-1.5,1-2.3,2.7-2.1,4.5c-0.1,1.7,0.5,3.4,1.7,4.6C179,100.8,181.6,101.2,183.9,100.3 M161.8,100.4v-1.6
	h-0.1c-0.7,0-1.5-0.1-2.2-0.4c-0.6-0.3-0.9-1-0.9-2.1v-8c-0.1-1.6,0.3-3.1,1.1-4.5c0.8-1.1,2.1-1.8,3.5-1.7c1.2-0.1,2.5,0.4,3.2,1.4
	c0.7,1.2,1,2.5,0.9,3.8v13.1h6.6v-1.6h-0.1c-0.7,0-1.5-0.1-2.1-0.5c-0.6-0.3-0.8-1.1-0.8-2.3v-9c0-2.6-0.6-4.5-1.7-5.7
	c-1.4-1.3-3.2-1.9-5-1.8c-2.4-0.1-4.6,1.3-5.6,3.5h-0.2c0-0.7,0.1-1.3,0.1-1.8s0-1,0-1.4v-8.3h-7v1.6h0.3c0.8,0,1.5,0.1,2.2,0.5
	c0.6,0.3,0.9,1,0.9,2.1v20.4c0,1.2-0.3,1.9-0.9,2.3c-0.7,0.3-1.4,0.5-2.2,0.5h-0.3v1.6L161.8,100.4z M146,100.4v-1.6h-1.1
	c-0.7,0-1.5-0.1-2.2-0.4c-0.6-0.3-0.9-1-0.9-2.1v-6c0-0.8,0.1-1.7,0.2-2.5c0.1-0.9,0.3-1.8,0.6-2.7c0.2-0.8,0.6-1.5,1.1-2.1
	c0.4-0.5,1.1-0.8,1.8-0.8c0.6-0.1,1.2,0.2,1.6,0.7c0.4,0.7,0.5,1.5,0.5,2.3c1,0.1,1.9-0.2,2.7-0.8c0.5-0.5,0.8-1.2,0.8-1.9
	c0-0.8-0.4-1.5-1-2c-0.9-0.5-2-0.8-3.1-0.7c-0.9,0-1.8,0.1-2.6,0.6c-0.6,0.4-1.1,0.9-1.5,1.5c-0.4,0.7-0.8,1.4-1.1,2.1h-0.2
	l-0.7-3.8H135v1.6h0.1c0.8,0,1.5,0.1,2.2,0.5c0.6,0.3,0.9,1,0.9,2.1v11.9c0,1.2-0.3,1.9-0.9,2.3c-0.7,0.3-1.4,0.5-2.2,0.5H135v1.6
	L146,100.4z M124.2,100.1c1.2-0.6,2.2-1.6,2.7-2.8h0.2l0.5,3.1h6v-1.6h-0.1c-0.7,0-1.5-0.1-2.2-0.4c-0.6-0.3-0.9-1-0.9-2.1V80.1
	h-6.8v1.6h0.1c0.8,0,1.5,0.1,2.2,0.5c0.6,0.3,0.9,1.1,0.9,2.3v7.8c0.1,1.6-0.3,3.1-1.1,4.5c-0.8,1.2-2.2,1.8-3.7,1.7
	c-1.2,0.1-2.4-0.4-3.2-1.4c-0.6-1.2-0.9-2.5-0.8-3.8V80.1h-6.8v1.6h0.1c0.8,0,1.5,0.1,2.2,0.5c0.6,0.3,0.9,1,0.9,2.1v9.1
	c0,2.6,0.5,4.5,1.6,5.7c1.2,1.2,2.9,1.9,4.6,1.8C121.9,100.8,123.1,100.6,124.2,100.1 M92.4,75.2h3.3c2.6-0.2,5.1,0.9,6.7,3
	c1.5,2,2.3,4.9,2.3,8.6c0,3.7-0.8,6.6-2.3,8.7c-1.6,2.1-4.2,3.2-6.8,3h-3.3V75.2z M96.6,100.4c2.4,0.1,4.8-0.5,6.9-1.7
	c1.8-1.1,3.3-2.8,4.1-4.7c1-2.3,1.5-4.7,1.4-7.2c0-4.3-1.1-7.6-3.3-10s-5.2-3.5-9.1-3.5H85v1.6h0.5c0.8,0,1.5,0.1,2.2,0.5
	c0.6,0.3,0.9,1,0.9,2.1v18.6c0,1.2-0.3,1.9-0.9,2.3c-0.7,0.3-1.4,0.5-2.2,0.5H85v1.6L96.6,100.4z"/>
<path class="st1" d="M58.7,71.7c7.4,0,14.8-0.5,22.1-1.3c0.4-6.2,0.1-12.4-0.9-18.6c-0.2-1.5-1.4-2.7-2.9-3
	C70.8,47.6,64.6,47,58.2,47c-0.8,6.7-1.1,13.4-1.1,20v3.1l0,0l0.8,0.1c0.4,0.1,0.7,0.3,0.7,0.7C58.6,70.9,58.7,71.7,58.7,71.7z"/>
<path class="st1" d="M53,77.5l-0.8-0.1c-0.4,0-0.6-0.3-0.7-0.7c0-0.3-0.1-0.8-0.1-0.8l0,0c-7.2-0.1-14.4,0.3-21.5,1.2
	c1.2,6.8,9,22.1,21.4,28.7C52,100.7,53,88.3,53,80.4V77.5L53,77.5z"/>
<path class="st1" d="M58.6,75.9L58.6,75.9c7.2-0.1,14.4,0.3,21.5,1.2c-1.2,6.8-8.9,22.1-21.4,28.7c-0.6-5.1-1.7-17.4-1.7-25.4v-2.9
	l0,0l0.7-0.1c0.4-0.1,0.6-0.3,0.7-0.7C58.5,76.4,58.6,75.9,58.6,75.9L58.6,75.9z"/>
<path class="st1" d="M41.5,61.6c0,0.1,0,0.1,0,0.2c0.1,0,0.2,0,0.2-0.1c0.1-0.1,0.1-0.1,0.2-0.2C41.8,61.6,41.6,61.6,41.5,61.6"/>
<path class="st1" d="M43.8,64.7c0.2-0.1,0.4,0,0.4,0.2s-0.3,0.3-0.4,0.4l-0.1,0.1c0-0.1,0-0.2,0-0.3S43.7,65,43.6,65
	c-0.1,0-0.6,0.4-0.3,1.1c0-0.2,0-0.3,0.1-0.4c0-0.1,0.1-0.1,0.1-0.2c0.1,0.1,0.1,0.2,0.1,0.4c0,0.3-0.2,0.3-0.1,0.5l0.1,0.2
	c0-0.1,0-0.2,0-0.2c0-0.1,0.1-0.2,0.1-0.2c0-0.1,0-0.1,0-0.2c0.1,0.1,0.2,0.2,0.1,0.4c0,0.1,0,0.3-0.1,0.4c0,0.1-0.1,0.2-0.1,0.2
	c-0.1,0.5-0.3,0.7-0.6,0.7c-0.2,0-0.3,0-0.5-0.1c0,0.6-0.7,0.6-0.7,0.9c0,0.1,0.1,0.2,0.1,0.3c0.1,0.1,0.4,0.2,0.5,0.3
	c-0.1,0-0.3,0.1-0.4,0.2c0.2,0.1,0.2,0.3,0.3,0.4c-0.2-0.1-0.3,0-0.4,0s0,0.2-0.1,0.3c0-0.1-0.1-0.2-0.2-0.2c-0.1,0-0.3,0.1-0.3,0.2
	c0,0.2-0.1,0.2-0.2,0.2c-0.1,0-0.1,0.2-0.1,0.3c-0.1-0.1-0.1-0.2-0.1-0.3c-0.1,0-0.1-0.1-0.1-0.2l0,0C40.8,70,40.7,70,40.6,70
	c-0.1,0-0.1,0.1-0.1,0.2c0-0.2,0-0.3,0.1-0.4c0-0.1,0-0.2,0.1-0.2c0,0,0,0,0-0.1c-0.1,0-0.1,0-0.2-0.1c-0.1,0-0.2,0-0.2,0.1
	c0-0.1,0.1-0.2,0.2-0.3c0.1-0.2,0.3-0.2,0.4-0.1c0.1,0.1,0.2,0.1,0.3,0.1c0.1,0,0.2-0.1,0.3-0.2l0.1-0.1c0-0.1,0.1-0.2-0.1-0.3
	c-0.1-0.2-0.4-0.4-0.4-0.6c0-0.3,0.1-0.5,0.3-0.7h-0.1c-0.2,0-0.2-0.1-0.4-0.1c-0.2,0-0.3,0.1-0.3,0.3c0,0.1,0,0.2,0.1,0.3
	c0.1,0.1,0.1,0.2,0.1,0.3c-0.1-0.1-0.3-0.1-0.5,0c0,0.1-0.1,0.2-0.2,0.3c-0.1-0.2-0.2-0.3-0.4-0.2c0,0-0.1,0-0.1,0.1
	c0,0.1,0,0.2-0.2,0.2c-0.2,0-0.1,0-0.1,0c-0.1,0.1-0.1,0.1-0.1,0.2c0-0.1,0-0.2,0.1-0.3c0-0.1,0-0.2,0.1-0.2l0,0
	c-0.1,0.1-0.2,0.1-0.3,0c-0.1,0-0.1,0-0.2,0.2c0-0.1,0-0.3,0.1-0.3c0-0.1,0.1-0.2,0.3-0.2s0,0,0,0l0,0c0,0-0.2,0-0.2-0.2
	c-0.1,0-0.2,0-0.2,0.1c-0.1-0.2,0-0.4,0.2-0.4c0,0,0,0,0,0c0.1,0,0.1-0.1,0.2-0.1c0.1,0,0.2,0,0.2,0.1c0.1,0.2,0.3,0.3,0.5,0.2
	c0.1,0,0.2-0.1,0.2-0.2c0-0.1-0.2-0.5-0.2-0.7c0.1-0.2,0.3-0.4,0.5-0.5c0.6,0,0.8,0.3,0.9,0.3s0.2,0,0.2-0.1
	c-0.3-0.4-0.5-0.3-0.8-0.6c-0.1-0.1-0.2-0.2-0.2-0.4c-0.2,0-0.3,0.3-0.4,0.4c0-0.1-0.1-0.1-0.2-0.1c-0.1,0-0.2,0.2-0.3,0.3
	c0-0.2-0.1-0.3-0.4-0.3c-0.2,0-0.2,0-0.3,0.1c-0.1,0.1-0.2,0.2-0.3,0.2c-0.1,0-0.1,0.1-0.2,0.2c-0.1-0.2,0-0.3,0-0.3
	c0-0.1,0-0.2,0.1-0.2l0,0c-0.1,0-0.2,0-0.3-0.1s-0.1,0-0.2,0.1c0-0.1,0.1-0.2,0.2-0.3c0-0.1,0.2-0.1,0.2-0.1c0.1,0,0,0,0,0
	c-0.1,0-0.1-0.1-0.1-0.2c-0.1-0.1-0.2,0-0.2,0c0.1-0.1,0.3-0.2,0.4-0.1s0.3,0,0.3,0.1c0,0.1,0.2,0.2,0.5,0.2c0.5,0,1.2-0.4,1.2-0.8
	c-0.1,0-0.1,0-0.2,0c-0.3,0-0.6,0.3-0.8,0.3c0.1-0.2,0-0.3,0.1-0.4c-0.2,0-0.4,0.1-0.5,0.1c0.1-0.1,0.1-0.2,0.2-0.3
	c0-0.1,0-0.2-0.3-0.2c-0.1,0-0.1,0-0.2,0c-0.1,0-0.3,0-0.3-0.2c-0.1,0-0.2,0-0.3,0.1c0-0.1,0.2-0.2,0.3-0.2c0-0.1,0.1-0.1,0.2-0.1
	l0,0c0,0-0.2,0-0.2-0.2s-0.1-0.1-0.3,0c0.2-0.1,0.2-0.1,0.3-0.1c0.1,0,0.3-0.1,0.3,0l0,0c0-0.1,0-0.2,0-0.2c0-0.1,0-0.1-0.2-0.2
	c0.1,0,0.3,0,0.4,0.1c0.1,0,0.2,0.1,0.2,0.2c0,0.2-0.2,0.3,0.2,0.5c0.2,0.1,0.3,0.1,0.5,0.2C40,64,40.2,64,40.3,64
	c-0.1-0.1,0-0.2-0.2-0.3c0.1,0,0.3,0,0.4,0.1c0-0.2,0-0.2-0.1-0.3h0.3c0.5,0.1,0.5-0.2,0.6-0.5c-0.2,0-0.5,0.1-0.7,0.2
	c0-0.1,0-0.2,0-0.2c0-0.1,0.1-0.2,0.1-0.2c0,0,0,0,0,0H41c0.1,0,0.2-0.1,0.2-0.3c-0.1-0.2-0.1-0.2-0.2-0.2l-0.2,0.1
	c-0.1,0-0.1,0.1-0.1,0.2c0,0.1,0-0.1-0.1-0.2l-0.1-0.1l0,0c0-0.1,0-0.2,0.1-0.2c0,0,0,0,0.1,0l0.3-0.1c0.1,0,0.2-0.1,0.2-0.2
	c0-0.1,0-0.1,0.2-0.1h0.3c0.2,0,0.5-0.2,0.4-0.4c0.1,0,0.2,0.3,0.2,0.4c0.1,0,0.3,0,0.4-0.1c0,0.2-0.1,0.3-0.2,0.4
	c0.1,0,0.3,0,0.4-0.1c-0.1,0.2-0.1,0.3-0.3,0.4c0.2,0.1,0.4,0.2,0.4,0.4c-0.2-0.1-0.2,0-0.4,0c0.2,0.3,0.4,0.6,0.5,1
	c-0.1-0.1-0.2-0.1-0.3-0.2c0.1,0.3-0.1,0.6,0,0.7c-0.1,0-0.2-0.1-0.2-0.2c-0.1,0.2-0.1,0.4-0.1,0.6c-0.1-0.1-0.2-0.1-0.2-0.2
	c-0.1,0.2-0.2,0.4-0.2,0.7c0,0.4,0.1,0.9,0.4,1.3c0.1,0.2,0.2,0.4,0.2,0.7c0.1,0.1,0.3,0.2,0.5,0.1c0.2,0,0.4-0.2,0.3-0.4
	c0-0.4-0.5-0.6-0.5-1.3c0-0.4,0.3-0.7,0.3-1c0-0.3-0.2-0.1-0.4-0.2c0.2,0,0.4-0.3,0.5-0.3s0.2,0.1,0.2,0.2c0,0.1,0,0.2-0.1,0.3
	c0.2-0.1,0.3-0.3,0.3-0.6c0-0.2-0.3-0.4-0.2-0.8c0,0,0,0,0-0.1c0.1,0.4,0.7,0.5,0.7,0.9S43.9,64.5,43.8,64.7 M40.2,62.1
	c0,0.2,0,0.4,0.2,0.4c0.2,0,0.5-0.1,0.7-0.2v0.1c-0.3,0.2-0.6,0.4-0.9,0.4c-0.2,0-0.3-0.1-0.3-0.3S40,62.3,40.2,62.1 M41.3,58.6
	L29.1,70.4c7.4,0.9,14.8,1.4,22.3,1.3l0,0c0,0,0-0.4,0.1-0.8c0-0.4,0.3-0.7,0.7-0.7l0.7-0.1L41.3,58.6z"/>
<path class="st1" d="M47.2,49.5c0,0.1,0,0.2,0,0.2c0.1,0,0.2,0,0.3-0.1c0.1-0.1,0.1-0.1,0.2-0.2C47.6,49.4,47.4,49.4,47.2,49.5"/>
<path class="st1" d="M35.8,50.3c0,0.1,0,0.2,0,0.2c0.1,0,0.2,0,0.2-0.1c0.1,0,0.1-0.1,0.2-0.2C36.1,50.3,35.9,50.3,35.8,50.3"/>
<path class="st1" d="M49.7,52.8c0.2-0.1,0.5,0,0.5,0.2s-0.3,0.3-0.4,0.4c0,0-0.1,0.1-0.1,0.1c0-0.2,0-0.3,0-0.4S49.6,53,49.5,53
	c-0.4,0.2-0.6,0.6-0.4,1c0,0,0,0.1,0.1,0.1c0-0.2,0-0.3,0.1-0.4c0.1-0.1,0.1-0.1,0.1-0.2c0.1,0.1,0.1,0.2,0.1,0.4
	c0,0.3-0.2,0.4-0.1,0.6c0,0.1,0,0.1,0.1,0.2c0-0.1,0-0.2,0-0.3c0-0.1,0.1-0.2,0.1-0.3c0-0.1,0-0.1,0-0.2c0.1,0.1,0.2,0.3,0.2,0.4
	c0,0.1,0,0.3-0.1,0.4c0,0.1-0.1,0.2-0.1,0.2c-0.1,0.5-0.3,0.7-0.6,0.7c-0.2,0-0.3,0-0.5-0.1c0,0.6-0.7,0.6-0.7,1
	c0,0.1,0.1,0.2,0.2,0.3c0.1,0.1,0.4,0.2,0.5,0.3c-0.2,0-0.3,0.1-0.4,0.2c0.3,0.1,0.3,0.3,0.3,0.5c-0.3-0.1-0.4,0-0.4,0
	s0,0.2-0.1,0.3c0-0.1-0.1-0.2-0.2-0.2c-0.1,0-0.3,0.1-0.3,0.3c0,0.1-0.1,0.2-0.2,0.3c0,0,0,0,0,0c-0.1,0.1-0.1,0.2-0.1,0.3
	c-0.1-0.1-0.1-0.2-0.1-0.3s-0.1-0.1-0.1-0.2l0,0c-0.1,0.1-0.1,0.1-0.3,0.1c-0.1,0.1-0.1,0.1-0.2,0.2c0-0.3,0-0.3,0.1-0.4
	c0-0.1,0-0.2,0.1-0.2c0,0,0,0,0-0.1c-0.1,0-0.1,0-0.2-0.1c-0.1,0-0.2,0.1-0.2,0.2c0-0.1,0.1-0.3,0.2-0.3c0.1-0.2,0.3-0.2,0.4-0.1
	c0.1,0.1,0.2,0.1,0.4,0.1c0.1,0,0.2-0.1,0.3-0.2c0,0,0-0.1,0.1-0.1c0-0.1,0.1-0.2-0.1-0.4s-0.4-0.4-0.4-0.7c0-0.3,0.1-0.5,0.3-0.7
	H47c-0.2,0-0.2-0.1-0.5-0.1c-0.2,0-0.3,0.2-0.3,0.3c0,0.1,0,0.2,0.1,0.3c0.1,0.1,0.1,0.2,0.1,0.3c-0.1-0.1-0.3-0.1-0.5,0
	c0,0.1-0.1,0.2-0.2,0.3c-0.1-0.2-0.2-0.3-0.4-0.2c-0.1,0-0.1,0-0.1,0.1c0,0.1-0.1,0.2-0.2,0.2c0,0-0.1,0-0.1,0
	c-0.1,0.1-0.1,0.1-0.2,0.2c0-0.1,0-0.2,0.1-0.3c0-0.1,0-0.2,0.1-0.2s0,0,0,0c-0.1,0.1-0.3,0.1-0.4,0c0,0,0,0,0,0
	c-0.1,0-0.1,0.1-0.2,0.2c0-0.1,0-0.3,0.1-0.3c0-0.1,0.1-0.2,0.3-0.2s0,0,0,0l0,0c0,0-0.2,0-0.2-0.2c-0.1,0-0.2,0-0.2,0.1
	c0-0.1,0.2-0.2,0.3-0.2c0-0.1,0.1-0.1,0.2-0.1c0.1,0,0.2,0,0.2,0.1c0.1,0.2,0.4,0.3,0.6,0.2c0.1,0,0.2-0.1,0.2-0.2c0,0,0,0,0,0
	c0-0.1-0.2-0.5-0.2-0.7c0.1-0.3,0.3-0.5,0.5-0.5c0.7,0,0.8,0.3,1,0.3c0.2,0,0.2,0,0.3-0.1c-0.3-0.4-0.5-0.4-0.8-0.6
	c-0.1-0.1-0.2-0.3-0.2-0.4c-0.2,0-0.4,0.3-0.5,0.4c0-0.1-0.1-0.1-0.2-0.1c-0.1,0-0.3,0.2-0.3,0.4c0-0.2-0.1-0.4-0.4-0.4
	c-0.1,0-0.2,0-0.3,0.1c-0.1,0.1-0.2,0.2-0.3,0.2c-0.1,0-0.1,0.1-0.2,0.3c-0.1-0.2,0-0.3,0-0.4c0-0.1,0-0.2,0.1-0.3l0,0
	c-0.1,0-0.2,0-0.3,0s-0.1,0-0.2,0.1c0-0.1,0.1-0.3,0.2-0.3c0.1-0.1,0.2-0.1,0.3-0.1l0,0c-0.1,0-0.1-0.1-0.1-0.2
	c-0.1-0.1-0.2,0-0.2,0c0.1-0.1,0.3-0.2,0.4-0.1s0.3,0,0.3,0.2s0.2,0.2,0.5,0.2c0.5,0,1.3-0.5,1.3-0.8c-0.1,0-0.2,0-0.2,0
	c-0.3,0-0.6,0.3-0.9,0.3c0.1-0.2,0-0.3,0.1-0.4c-0.2,0-0.4,0.1-0.6,0.1c0.1-0.1,0.2-0.2,0.2-0.3c0-0.1,0-0.2-0.3-0.2
	c-0.1,0-0.1,0-0.2,0c-0.1,0-0.3,0-0.3-0.2c-0.1,0-0.2,0-0.3,0.1c0-0.1,0.2-0.2,0.3-0.2c0-0.1,0.1-0.1,0.2-0.1c0,0,0,0,0-0.1
	s-0.2,0-0.2-0.2s-0.1-0.1-0.3,0c0.2-0.2,0.3-0.1,0.3-0.1c0.1-0.1,0.2-0.1,0.3,0c0,0,0,0,0.1,0c0-0.1,0-0.2,0-0.3
	c0-0.1-0.1-0.2-0.2-0.2c0.1,0,0.3,0,0.4,0.1c0.1,0,0.2,0.1,0.2,0.2c0,0.2-0.2,0.3,0.2,0.6c0.2,0.1,0.3,0.2,0.5,0.2
	c0.2,0.1,0.3,0.1,0.5,0.1c-0.1-0.1,0-0.2-0.2-0.3c0.1,0,0.3,0,0.4,0.1c0-0.2,0-0.2-0.1-0.3c0.1,0,0.2,0,0.3,0c0.5,0,0.5-0.2,0.6-0.5
	c-0.3,0-0.5,0.1-0.7,0.2c0-0.1,0-0.2,0-0.2c0-0.1,0.1-0.2,0.2-0.2c0,0,0,0,0,0h0.2c0.1,0,0.3-0.1,0.2-0.4c0-0.1-0.1-0.2-0.2-0.2
	l-0.2,0.1c-0.1,0-0.1,0.1-0.1,0.2l-0.1-0.2c0,0,0-0.1-0.1-0.1l0,0c0-0.1,0-0.2,0.1-0.2c0,0,0,0,0,0l0.3-0.1c0.1,0,0.2-0.1,0.3-0.2
	c0-0.1,0.1-0.1,0.2-0.1h0.3c0.2,0,0.5-0.2,0.4-0.4c0.2,0,0.2,0.3,0.2,0.4c0.1,0,0.3,0,0.4-0.1c0,0.2-0.1,0.3-0.2,0.5
	c0.1,0,0.3,0,0.4-0.1c-0.1,0.2-0.1,0.3-0.3,0.5c0.2,0.1,0.4,0.2,0.5,0.5c-0.2-0.1-0.3,0-0.4,0c0.2,0.3,0.4,0.6,0.5,1
	c-0.1-0.1-0.2-0.1-0.4-0.2c0.1,0.3-0.1,0.6,0,0.7c-0.1-0.1-0.2-0.1-0.3-0.2c-0.1,0.2-0.1,0.4-0.1,0.7c-0.1-0.2-0.2-0.4-0.3-0.7
	c-0.2,0.2-0.2,0.4-0.2,0.7c0,0.5,0.2,0.9,0.4,1.3c0.1,0.2,0.2,0.5,0.2,0.7c0,0.2,0.2,0.4,0.4,0.4c0.2,0,0.4-0.2,0.4-0.4c0,0,0,0,0,0
	c0-0.4-0.5-0.7-0.5-1.4c0-0.5,0.4-0.7,0.4-1s-0.2-0.1-0.4-0.2c0.2,0,0.4-0.3,0.6-0.3c0.1,0,0.2,0.1,0.2,0.2c0,0,0,0,0,0
	c0,0.1,0,0.2-0.1,0.3c0.2-0.2,0.3-0.4,0.3-0.6c0-0.2-0.3-0.4-0.2-0.8c0,0,0,0,0-0.1c0.1,0.5,0.7,0.6,0.7,1S49.9,52.5,49.7,52.8
	 M46,50c-0.1,0.2,0,0.5,0.2,0.5c0.2,0,0.5-0.1,0.7-0.2l0.1,0.1c-0.3,0.2-0.6,0.4-1,0.5c-0.1,0-0.3-0.1-0.3-0.2c0,0,0,0,0-0.1
	C45.7,50.3,45.8,50.2,46,50 M38.2,53.5c0.2-0.1,0.4,0,0.4,0.2s-0.3,0.3-0.4,0.4c0,0-0.1,0.1-0.1,0.1c0-0.1,0-0.3,0-0.4
	s-0.1-0.2-0.2-0.2c-0.4,0.2-0.6,0.6-0.4,1c0,0,0,0.1,0.1,0.1c0-0.2,0-0.4,0.1-0.5c0-0.1,0.1-0.1,0.1-0.2c0.1,0.1,0.1,0.2,0.1,0.4
	c0,0.3-0.2,0.3-0.1,0.6l0.1,0.2c0-0.1,0-0.2,0-0.3c0-0.1,0.1-0.2,0.1-0.3c0-0.1,0-0.1,0-0.2c0.1,0.1,0.2,0.3,0.2,0.4
	c0,0.1,0,0.3-0.1,0.4c0,0.1-0.1,0.1-0.1,0.2c-0.1,0.5-0.3,0.7-0.6,0.7c-0.2,0-0.3,0-0.5-0.1c0,0.6-0.7,0.6-0.7,1
	c0,0.1,0.1,0.2,0.1,0.3c0.1,0.1,0.4,0.2,0.5,0.3c-0.1,0-0.3,0.1-0.4,0.2c0.2,0.1,0.2,0.3,0.3,0.4c-0.2-0.1-0.4,0-0.4,0
	c-0.1,0,0,0.2-0.1,0.3c0-0.1-0.1-0.2-0.2-0.2c-0.1,0-0.3,0.2-0.3,0.2c0,0.1-0.1,0.2-0.2,0.2c0,0,0,0,0,0c-0.1,0.1-0.1,0.2-0.1,0.3
	c-0.1-0.1-0.1-0.2-0.1-0.3s-0.1-0.1-0.1-0.2l0,0c-0.1,0.1-0.2,0.1-0.3,0.1c-0.1,0-0.1,0.1-0.1,0.2c0-0.2,0-0.3,0.1-0.4
	c0-0.1,0-0.2,0.1-0.3c0,0,0,0,0,0l0,0c-0.1,0-0.2,0-0.2-0.1c-0.1,0-0.2,0.1-0.2,0.1c0-0.1,0.1-0.3,0.2-0.3c0.1-0.2,0.3-0.2,0.4-0.1
	c0.1,0.1,0.2,0.1,0.3,0.1c0.1,0,0.2-0.1,0.3-0.2c0,0,0-0.1,0.1-0.1c0-0.1,0.1-0.2-0.1-0.3c-0.2-0.2-0.4-0.4-0.4-0.6
	c0-0.3,0.1-0.5,0.3-0.7h-0.1c-0.2,0-0.2-0.1-0.5-0.1c-0.2,0-0.3,0.1-0.3,0.3c0,0,0,0,0,0c0,0.1,0,0.2,0.1,0.3c0,0.1,0.1,0.2,0.1,0.3
	c-0.1-0.1-0.3-0.1-0.5,0c0,0.1-0.1,0.2-0.2,0.3c0-0.2-0.2-0.3-0.4-0.2c-0.1,0-0.1,0-0.1,0.1c0,0.1-0.1,0.2-0.2,0.2c0,0,0,0,0,0
	c0,0-0.1,0-0.1,0c-0.1,0-0.1,0.1-0.2,0.2c0-0.1,0-0.2,0-0.3c0-0.1,0-0.2,0.1-0.2s0,0,0,0C33.3,57,33.1,57,33,57
	c-0.1,0-0.1,0.1-0.2,0.2c-0.1-0.2,0-0.3,0.2-0.5c0-0.1,0.1-0.2,0.3-0.2c0.1,0,0,0,0,0l0,0c0,0-0.2,0-0.2-0.2c-0.1,0-0.2,0-0.2,0.1
	c0-0.1,0.1-0.2,0.3-0.2c0-0.1,0.2-0.1,0.2-0.1c0.1,0,0.2,0,0.2,0.1c0.1,0.2,0.3,0.3,0.5,0.2c0.1,0,0.2-0.1,0.2-0.2l0,0
	c0-0.1-0.2-0.5-0.2-0.7c0.1-0.3,0.3-0.5,0.5-0.5c0.6,0,0.8,0.3,0.9,0.3c0.2,0,0.2,0,0.3-0.1c-0.3-0.4-0.5-0.4-0.8-0.6
	c-0.1-0.1-0.2-0.3-0.2-0.4c-0.2,0-0.3,0.3-0.4,0.4c0-0.1-0.1-0.1-0.2-0.1c-0.1,0-0.2,0.2-0.3,0.3c0-0.2-0.1-0.3-0.3-0.3
	c-0.2,0-0.2,0-0.3,0.1c-0.1,0.1-0.2,0.2-0.3,0.1c-0.1,0.1-0.2,0.1-0.2,0.2c-0.1-0.2,0-0.3,0-0.3c0-0.1,0-0.2,0.1-0.2l0,0
	c-0.1,0-0.2,0-0.3-0.1s-0.1,0-0.2,0.1c0-0.1,0.1-0.2,0.2-0.3c0.1-0.1,0.2-0.1,0.3-0.1l0,0c-0.1,0-0.1-0.1-0.1-0.2
	c-0.1-0.1-0.2,0-0.2,0c0.1-0.1,0.3-0.2,0.4-0.1c0.1,0.1,0.3,0,0.3,0.1s0.2,0.2,0.5,0.2c0.5,0,1.3-0.4,1.2-0.8h-0.2
	c-0.3,0-0.6,0.3-0.8,0.3c0.1-0.1,0-0.3,0.1-0.4c-0.2,0-0.4,0.1-0.5,0.1c0.1-0.1,0.1-0.2,0.2-0.3c0-0.1,0-0.2-0.3-0.2
	c-0.1,0-0.1,0-0.2,0c-0.1,0-0.3,0-0.3-0.2c-0.1,0-0.2,0-0.3,0.1c0-0.1,0.2-0.2,0.3-0.2c-0.1-0.1-0.1-0.2,0-0.3s0.2-0.1,0.3,0l0,0
	c0,0,0,0,0-0.1s-0.2,0-0.2-0.2s-0.1-0.1-0.3,0c0.2-0.2,0.3-0.1,0.3-0.1c0.1,0,0.3,0,0.3,0c0,0,0,0,0,0c0-0.1,0-0.2,0-0.3
	c0-0.2,0-0.2-0.1-0.2c0.1,0,0.3,0,0.4,0.1c0.1,0,0.2,0.1,0.2,0.2c0,0.2-0.2,0.3,0.2,0.6c0.2,0.1,0.3,0.1,0.5,0.2
	c0.2,0.1,0.3,0.1,0.5,0.1c-0.1-0.1,0-0.2-0.2-0.3c0.1,0,0.3,0,0.4,0.1c0-0.2,0-0.2-0.1-0.3h0.3c0.5,0,0.5-0.2,0.6-0.5
	c-0.2,0-0.5,0.1-0.7,0.2c0-0.1,0-0.2,0-0.2c0-0.1,0.1-0.2,0.1-0.2c0,0,0,0,0,0h0.1c0.1,0,0.2-0.1,0.2-0.3c-0.1-0.2-0.1-0.2-0.2-0.2
	l-0.2,0.1c-0.1,0-0.1,0.1-0.1,0.2c0,0,0-0.2,0-0.2c0,0,0-0.1-0.1-0.1l0,0c0-0.1,0-0.2,0.1-0.2c0,0,0,0,0,0l0.3-0.1
	c0.1,0,0.2-0.1,0.2-0.2c0-0.1,0.1-0.1,0.2-0.1h0.3c0.2,0,0.5-0.2,0.4-0.4c0.2,0,0.2,0.3,0.2,0.4c0.1,0,0.3,0,0.4-0.1
	c0,0.2-0.1,0.3-0.2,0.4c0.1,0,0.3-0.1,0.4-0.1c0,0.2-0.1,0.3-0.3,0.5c0.2,0.1,0.4,0.2,0.5,0.5c-0.2-0.1-0.3,0-0.4,0
	c0.2,0.3,0.4,0.6,0.5,1c-0.1-0.1-0.2-0.1-0.4-0.2c0.1,0.3,0,0.6,0,0.7c-0.1,0-0.2-0.1-0.2-0.2c-0.1,0.2-0.1,0.4-0.1,0.6
	c-0.1-0.1-0.2-0.1-0.2-0.2c-0.1,0.2-0.2,0.4-0.2,0.7c0,0.5,0.1,0.9,0.4,1.3c0.1,0.2,0.2,0.5,0.2,0.7c0,0.2,0.2,0.4,0.4,0.4
	c0.2,0,0.4-0.2,0.4-0.4c0,0,0,0,0,0c0-0.4-0.5-0.7-0.5-1.3c0-0.5,0.3-0.7,0.4-1c0-0.3-0.2-0.1-0.4-0.2c0.2,0,0.4-0.3,0.6-0.3
	s0.2,0.1,0.2,0.2c0,0.1,0,0.2-0.1,0.3c0.2-0.1,0.3-0.3,0.3-0.6c0-0.2-0.3-0.4-0.2-0.8c0-0.1,0,0,0-0.1c0.1,0.4,0.7,0.5,0.7,0.9
	S38.4,53.1,38.2,53.5 M34.6,50.7c0,0.2,0,0.5,0.2,0.5c0.2,0,0.5-0.1,0.7-0.2V51c-0.3,0.2-0.6,0.4-1,0.4c-0.1,0-0.3-0.1-0.3-0.2
	c0,0,0,0,0-0.1C34.2,51,34.4,50.9,34.6,50.7 M53,66.3c0-6.5-0.4-12.9-1.1-19.3c-6.3,0-12.6,0.6-18.8,1.9c-1.5,0.3-2.7,1.5-2.9,3
	c-0.8,4.7-1.2,9.5-1.2,14.3c0,0.6,0,0.5,0,1.2c1.2-1.2,12.4-12,12.4-12L53,66.9V66.3"/>
</svg>
