<?xml version="1.0" encoding="UTF-8"?><svg id="Layer_2" xmlns="http://www.w3.org/2000/svg" viewBox="0 0 260.28 163.01"><defs><style>.cls-1{fill:#bf1a2f;}</style></defs><g id="logo1"><path class="cls-1" d="M47.87,94.24L0,72.59,126.6,0l4.64,1.96,92.34,51.32c4.96-3.4,10.49-5.11,16.59-4.39,7.25.86,5.31,11.83,5.42,16.74l14.69,7.73-14.77,8.4v60.87h9.68v20.37l-12.99-7.64-11.97,7.64v-20.37h9.17v-57.56l-27,13.75v-12.22c-20.89-9.68-43.5-18.05-66.54-20.82-34.52-4.14-67.46,6.3-97.99,21.33v7.13ZM239.39,61.64c.24-7.22-1.79-7.5-7.64-4.57-.26,1.19.16.81.65,1.13.75.48,6.69,3.77,6.98,3.44ZM235.18,68.38c-7.87,1.62-5.59,14.06,3.34,12,6.65-1.53,4.83-13.68-3.34-12Z"/><path class="cls-1" d="M204.25,131.93c-20.48-7.12-41.61-13.99-63.42-15.79-29.04-2.39-57.85,6.2-84.81,15.79v-40.5c11.24-6.23,23.8-11.2,36.17-14.77,22.53-6.49,41.77-7.44,64.79-2.64,16.24,3.38,32.54,9.42,47.28,16.91v41Z"/></g></svg>